<?xml version="1.0" encoding="utf-8"?>
<!-- Generator: Adobe Illustrator 21.1.0, SVG Export Plug-In . SVG Version: 6.00 Build 0)  -->
<svg version="1.1" id="Calque_1" xmlns="http://www.w3.org/2000/svg" xmlns:xlink="http://www.w3.org/1999/xlink" x="0px" y="0px"
	 viewBox="0 0 362 160" enable-background="new 0 0 362 160" xml:space="preserve">
<polygon fill-rule="evenodd" clip-rule="evenodd" fill="#C1063B" points="4.3,146.6 125.3,146.6 125.3,159.4 4.3,159.4 4.3,146.6 
	"/>
<path fill="#009789" d="M28.6,52.8c0,0,9.9,29.9,17.7,53.2c4.6-29.6,12.2-77.6,12.2-77.6c0.5-3.2,3.2-5.5,6.4-5.5l49.4-0.5
	C102.3,8.7,84.7,0,65.1,0C34.9,0,9.6,20.5,2.2,48.4l20.1-0.1C25.1,48.3,27.7,50.1,28.6,52.8z"/>
<path fill="#009789" d="M0.1,61.5C0,62.7,0,63.9,0,65.1c0,26.5,15.8,49.3,38.6,59.4c-6.4-19.3-19-57.2-21-63.1
	C14,61.5,6.6,61.5,0.1,61.5z"/>
<path fill="#009789" d="M70.5,36c-1.3,8.4-11.7,74.4-14.7,93.6c3,0.4,6.1,0.7,9.3,0.7c36,0,65.1-29.2,65.1-65.1
	c0-10.7-2.6-20.8-7.2-29.7C102.9,35.6,76.4,35.9,70.5,36z"/>
<path fill="#FFFFFF" d="M123.1,35.4c-2.4-4.7-5.4-9.1-8.8-13l-49.4,0.5c-3.2,0-5.9,2.4-6.4,5.5c0,0-7.5,48-12.2,77.6
	c-7.8-23.4-17.7-53.2-17.7-53.2c-0.9-2.7-3.4-4.5-6.2-4.5L2.2,48.4C1.1,52.6,0.3,57,0.1,61.5c6.5,0,13.9,0,17.5,0
	c2,5.9,14.5,43.8,21,63.1c5.4,2.4,11.2,4.1,17.3,5c3-19.2,13.4-85.2,14.7-93.6C76.4,35.9,102.9,35.6,123.1,35.4z"/>
<g>
	<path fill="#009789" d="M156.9,92.6h16.4v2.8h-13.1v7.9h11.5v2.8h-11.5v11.4h-3.3V92.6z"/>
	<path fill="#009789" d="M192.4,117.4c-0.5,0.3-1.2,0.5-2.1,0.5c-1.5,0-2.5-0.8-2.5-2.8c-1.6,1.9-3.8,2.8-6.4,2.8
		c-3.3,0-6-1.5-6-5.1c0-4.1,3-5,6.1-5.6c3.3-0.6,6.1-0.4,6.1-2.7c0-2.6-2.1-3-4-3c-2.5,0-4.4,0.8-4.5,3.4h-3c0.2-4.5,3.6-6,7.6-6
		c3.2,0,6.8,0.7,6.8,5v9.3c0,1.4,0,2,0.9,2c0.2,0,0.5,0,0.9-0.2V117.4z M187.6,108.2c-1.2,0.8-3.4,0.9-5.4,1.2c-2,0.3-3.6,1-3.6,3.2
		c0,2,1.7,2.7,3.5,2.7c3.9,0,5.5-2.4,5.5-4.1V108.2z"/>
	<path fill="#009789" d="M207.4,105.2c-0.5-2.3-2-3.6-4.5-3.6c-4.3,0-5.6,3.4-5.6,7.1c0,3.3,1.5,6.6,5.3,6.6c2.9,0,4.6-1.7,5-4.4h3
		c-0.7,4.4-3.4,7-8,7c-5.5,0-8.5-3.8-8.5-9.2c0-5.4,2.8-9.7,8.5-9.7c4.1,0,7.4,1.9,7.8,6.2H207.4z"/>
	<path fill="#009789" d="M228.9,117.5h-2.8v-2.9H226c-1.3,2.2-3.3,3.3-5.9,3.3c-4.7,0-6.2-2.7-6.2-6.6V99.4h3v12.2
		c0,2.2,1.4,3.6,3.7,3.6c3.6,0,5.3-2.4,5.3-5.7V99.4h3V117.5z"/>
	<path fill="#009789" d="M233.5,92.6h3v24.9h-3V92.6z"/>
	<path fill="#009789" d="M245.2,99.4h3.6v2.6h-3.6v11.2c0,1.4,0.4,1.6,2.2,1.6h1.4v2.6h-2.3c-3.1,0-4.3-0.6-4.3-3.9v-11.5h-3.1v-2.6
		h3.1V94h3V99.4z"/>
	<path fill="#009789" d="M267.5,111.8c-0.8,4-3.7,6.1-7.7,6.1c-5.8,0-8.5-4-8.7-9.5c0-5.4,3.6-9.4,8.5-9.4c6.4,0,8.3,6,8.2,10.3
		h-13.5c-0.1,3.1,1.7,5.9,5.6,5.9c2.4,0,4.2-1.2,4.7-3.5H267.5z M264.7,106.7c-0.1-2.8-2.3-5.1-5.2-5.1c-3.1,0-5,2.3-5.2,5.1H264.7z
		 M260.1,92h3.8l-4.6,5h-2.2L260.1,92z"/>
	<path fill="#009789" d="M172.5,159.4h-3V157h-0.1c-1,2-3.3,2.9-5.8,2.9c-5.6,0-8.3-4.4-8.3-9.5c0-5.1,2.7-9.4,8.2-9.4
		c1.9,0,4.5,0.7,5.8,2.8h0.1v-9.3h3V159.4z M164.1,157.2c4,0,5.5-3.4,5.5-6.8c0-3.6-1.6-6.8-5.7-6.8c-4.1,0-5.4,3.5-5.4,7
		C158.6,153.9,160.3,157.2,164.1,157.2z"/>
	<path fill="#009789" d="M192.5,153.7c-0.8,4-3.7,6.1-7.7,6.1c-5.8,0-8.5-4-8.7-9.5c0-5.4,3.6-9.4,8.5-9.4c6.4,0,8.3,6,8.2,10.3
		h-13.5c-0.1,3.1,1.7,5.9,5.6,5.9c2.4,0,4.2-1.2,4.7-3.5H192.5z M189.6,148.6c-0.1-2.8-2.3-5.1-5.2-5.1c-3.1,0-5,2.3-5.2,5.1H189.6z
		"/>
	<path fill="#009789" d="M197.7,153.7c0.1,2.7,2.4,3.5,4.9,3.5c1.9,0,4.4-0.4,4.4-2.7c0-2.3-2.9-2.7-5.9-3.4
		c-2.9-0.7-5.9-1.6-5.9-5.1c0-3.6,3.6-5.1,6.7-5.1c4,0,7.2,1.3,7.4,5.7h-3c-0.2-2.3-2.2-3-4.2-3c-1.8,0-3.8,0.5-3.8,2.3
		c0,2.1,3.1,2.5,5.9,3.1c3,0.7,5.9,1.6,5.9,5.1c0,4.3-4,5.7-7.7,5.7c-4.1,0-7.5-1.6-7.6-6.1H197.7z"/>
	<path fill="#009789" d="M237.9,141.8c-0.4-3.6-2.8-5.1-6.2-5.1c-2.8,0-5.6,1-5.6,4.3c0,3.1,4,3.5,8,4.4c4,0.9,8,2.3,8,7.2
		c0,5.3-5.2,7.4-9.7,7.4c-5.6,0-10.3-2.7-10.3-8.8h3.1c0,4.2,3.5,6,7.3,6c3,0,6.3-0.9,6.3-4.5c0-3.4-4-4-8-4.9c-4-0.9-8-2-8-6.6
		c0-5.1,4.5-7.3,9-7.3c5.1,0,9,2.4,9.2,7.9H237.9z"/>
	<path fill="#009789" d="M257.9,147.1c-0.5-2.3-2-3.6-4.5-3.6c-4.3,0-5.6,3.4-5.6,7.1c0,3.3,1.5,6.6,5.3,6.6c2.9,0,4.6-1.7,5-4.4h3
		c-0.7,4.4-3.4,7-8,7c-5.5,0-8.5-3.8-8.5-9.2c0-5.4,2.8-9.7,8.5-9.7c4.1,0,7.4,1.9,7.8,6.2H257.9z"/>
	<path fill="#009789" d="M267.6,138.1h-3v-3.6h3V138.1z M264.6,141.4h3v18.1h-3V141.4z"/>
	<path fill="#009789" d="M287.6,153.7c-0.8,4-3.7,6.1-7.7,6.1c-5.8,0-8.5-4-8.7-9.5c0-5.4,3.6-9.4,8.5-9.4c6.4,0,8.3,6,8.2,10.3
		h-13.5c-0.1,3.1,1.7,5.9,5.6,5.9c2.4,0,4.2-1.2,4.7-3.5H287.6z M284.7,148.6c-0.1-2.8-2.3-5.1-5.2-5.1c-3.1,0-5,2.3-5.2,5.1H284.7z
		"/>
	<path fill="#009789" d="M290.9,141.4h2.8v2.9h0.1c1.3-2.2,3.3-3.3,5.9-3.3c4.8,0,6.2,2.7,6.2,6.6v11.9h-3v-12.2
		c0-2.2-1.4-3.6-3.7-3.6c-3.6,0-5.3,2.4-5.3,5.7v10.2h-3V141.4z"/>
	<path fill="#009789" d="M322.6,147.1c-0.5-2.3-2-3.6-4.5-3.6c-4.3,0-5.6,3.4-5.6,7.1c0,3.3,1.5,6.6,5.3,6.6c2.9,0,4.6-1.7,5-4.4h3
		c-0.7,4.4-3.4,7-8,7c-5.5,0-8.5-3.8-8.5-9.2c0-5.4,2.8-9.7,8.5-9.7c4.1,0,7.4,1.9,7.8,6.2H322.6z"/>
	<path fill="#009789" d="M344.5,153.7c-0.8,4-3.7,6.1-7.7,6.1c-5.8,0-8.5-4-8.7-9.5c0-5.4,3.6-9.4,8.5-9.4c6.4,0,8.3,6,8.2,10.3
		h-13.5c-0.1,3.1,1.7,5.9,5.6,5.9c2.4,0,4.2-1.2,4.7-3.5H344.5z M341.6,148.6c-0.1-2.8-2.3-5.1-5.2-5.1c-3.1,0-5,2.3-5.2,5.1H341.6z
		"/>
	<path fill="#009789" d="M349.7,153.7c0.1,2.7,2.4,3.5,4.9,3.5c1.9,0,4.4-0.4,4.4-2.7c0-2.3-2.9-2.7-5.9-3.4
		c-2.9-0.7-5.9-1.6-5.9-5.1c0-3.6,3.6-5.1,6.7-5.1c4,0,7.2,1.3,7.4,5.7h-3c-0.2-2.3-2.2-3-4.2-3c-1.8,0-3.8,0.5-3.8,2.3
		c0,2.1,3.1,2.5,5.9,3.1c3,0.7,5.9,1.6,5.9,5.1c0,4.3-4,5.7-7.7,5.7c-4.1,0-7.5-1.6-7.6-6.1H349.7z"/>
</g>
</svg>
